<?xml version="1.0" encoding="UTF-8" standalone="no"?>
<!-- Created with Inkscape (http://www.inkscape.org/) -->

<svg
   version="1.1"
   id="svg2"
   width="3333.3333"
   height="2222.6667"
   viewBox="0 0 3333.3333 2222.6667"
   sodipodi:docname="faxa.eps"
   xmlns:inkscape="http://www.inkscape.org/namespaces/inkscape"
   xmlns:sodipodi="http://sodipodi.sourceforge.net/DTD/sodipodi-0.dtd"
   xmlns="http://www.w3.org/2000/svg"
   xmlns:svg="http://www.w3.org/2000/svg">
  <defs
     id="defs6" />
  <sodipodi:namedview
     id="namedview4"
     pagecolor="#4287f5"
     bordercolor="#000000"
     borderopacity="0.25"
     inkscape:showpageshadow="2"
     inkscape:pageopacity="0.0"
     inkscape:pagecheckerboard="0"
     inkscape:deskcolor="#d1d1d1" />
  <g
     id="g8"
     inkscape:groupmode="layer"
     inkscape:label="ink_ext_XXXXXX"
     transform="matrix(1.3333333,0,0,-1.3333333,0,2222.6667)">
    <g
       id="g10"
       transform="scale(0.1)">
      <path
         d="M 25000,0 H 0 V 16670 H 25000 V 0"
         style="fill:#fc5b5b;fill-opacity:1;fill-rule:nonzero;stroke:none"
         id="path12" />
      <path
         d="m 27388.3,-655.898 c -741.9,-1.801 -1467.9,199.898 -2186.1,363.597 -663,151 -1362.2,320.0002 -2045.7,230.2033 -707,-93.0003 -1421,-58.3003 -2131.9,-55.5003 -683,2.7 -1408.8,5.098 -2060.5,-226.8 -230.6,-82.102 -438.6,-208.102 -682.1,-253.801 -183.3,-34.301 -370.2,-30.602 -554,-2 -386.7,60 -751.5,216.398 -1141.3,263.301 -237,28.601 -477.1,18.199 -710.2,-34.403 -253.8,-57.398 -472.7,-184.699 -716.5,-265.597 -397.5,-131.903 -810.9,-133.704 -1218.7,-52.7 -767.6,152.5 -1540.1,547.7 -2341.1,372.297 C 10760.8,-501.098 9992.56,-1383 9078.64,-1129.5 c -492.95,136.801 -747.73,610 -1195.11,830.602 -397.2,195.796 -846.01,280.1988 -1286.68,285.0972 C 6135.48,-8.5 5665.55,-90.6016 5244.8,-283.898 4776.85,-499 4411.13,-892.398 3952.3,-1133.2 c -356.88,-187.3 -735.78,-295.5 -1135.53,-340.1 -445.41,-49.6 -905.98,-101.1 -1347.88,-18.2 -1251.324,234.8 -2440.964,753.602 -3707.05,915.199 0,131.5 0,263.102 0,394.703 1282.676,-122.902 2546.336,-392.3 3825.39,-544.199 433.55,-51.402 874.76,-24.805 1311.46,-23.801 386.92,0.797 763.34,40.899 1126.52,182 477.77,185.598 850.81,550.7972 1323.02,736.2 C 5749.79,326.301 6187.68,386.199 6617.58,369.5 7046.07,353 7477.51,260.699 7867.34,79.6992 8302.98,-122.598 8590.47,-556.301 9073.33,-656.098 10033.4,-854.699 10806.2,67.1016 11695.3,241.5 c 811.8,159.102 1496,-328 2239.7,-544.199 394.6,-114.699 813.7,-121.699 1195.9,45 253.8,110.801 477.5,265.80056 748.3,340.8006 219,60.6994 444.6,80.6994 670.3,50.5974 380.1,-50.5974 716.4,-246.097 1088.6,-324.496 174.7,-36.801 353.5,-41.902 528,-0.402 262.3,62.398 464.4,235.5974 706.4,342.801 575.2,254.699 1237.6,234.097 1852.3,203.597 675.4,-33.398 1354,-106.5 2026.2,2.301 729.4,118 1493,-79.699 2200,-245.699 775.5,-182.0002 1561.3,-413.801 2363.8,-416.301 25.8,-116.801 50.4,-233.898 73.5,-351.398"
         style="fill:#100f0d;fill-opacity:1;fill-rule:nonzero;stroke:none"
         id="path14" />
      <path
         d="m 27251.5,-34.5977 c -853.5,7.1993 -1689.2,263.8007 -2512.9,461.2967 -724.1,173.703 -1521.5,390.5 -2270.6,269.602 -654.3,-105.602 -1280.8,-36.199 -1935.9,26.801 -592.5,56.898 -1241.7,98.5 -1781.8,-199.801 -222.8,-123 -397.6,-305 -645.6,-383.699 -168.4,-53.4028 -340.6,-55.8012 -511.9,-14.903 -361.4,86.301 -672.3,310.801 -1043,370.903 -224.5,36.296 -451.5,13.699 -667.9,-55.2 C 15581.5,344.801 15346.2,143.801 15063.2,18.3008 14693.7,-145.5 14306.1,-138.297 13930.6,1 13185.9,277.199 12549.9,869.602 11698.6,672 10807,465.102 10036,-430.301 9067.61,-284.199 8603.06,-214.098 8302.65,169 7889.75,359.102 c -380.3,175 -795.18,278.097 -1212.32,309.5 C 6247.21,701 5805.89,657.102 5398.19,511.801 4950.32,352.102 4588.33,32.5 4124.21,-100.098 c -369.11,-105.402 -742.63,-94.8 -1121.02,-61.3 -438.1,38.898 -874.43,35.097 -1312.72,61.3 -1309.361,78.2972 -2619.439,144.3011 -3928.63,225.5 0,131.598 0,263.098 0,394.7 1338.25,-16.801 2670.031,176.796 4007.02,207.097 468.58,10.602 913.73,-17.097 1371.93,-116.398 C 3494.73,534 3848.57,455.5 4212.83,499.602 c 477.07,57.699 850.23,344.699 1301.16,473.199 386.6,110.199 794.23,130.799 1192.55,85.599 402.89,-45.6 797.7,-157.099 1168.9,-319.498 403.5,-176.5 733.19,-513 1187.89,-547.101 C 10081,115.5 10853.9,1050.7 11802.6,1256.2 c 849,184 1400.8,-494.399 2085.9,-844.798 C 14260,221.5 14651.3,200.801 15027,394.5 c 278.8,143.699 502.4,365 798.9,484.402 227.2,91.598 473.9,131.898 716.2,83.5 348.1,-69.703 615.5,-316.902 948.7,-420.703 500.6,-156 774,245.602 1146.4,489.901 472.3,309.8 1039.3,258.7 1570.8,172.6 621.9,-100.8 1196.2,-199.4 1822.8,-81.7 793.7,149.1 1664.8,-102.6 2430.9,-291.398 885.5,-218.102 1784.9,-506.903 2703.7,-521.704 29.1,-114.597 57.9,-229.1988 86.1,-343.9957"
         style="fill:#100f0d;fill-opacity:1;fill-rule:nonzero;stroke:none"
         id="path16" />
      <path
         d="m 27097,576.199 c -968.2,21.403 -1916.6,336.203 -2848.5,570.701 -794.1,199.7 -1727,485.2 -2549.5,307.2 -606.4,-131.3 -1145.5,-4.3 -1738.9,127.6 -498.6,110.9 -1025.1,165.9 -1448.7,-177.4 C 18192.6,1146 17914.6,696.602 17437.8,857.602 17101.4,971.301 16857.7,1261.8 16499.6,1332.3 15891.3,1451.9 15471,975.199 15001.3,691.402 14634.6,469.902 14240.5,500.199 13883.8,720 13209.2,1135.9 12704.9,1923.6 11806.9,1695.4 10864.3,1455.9 10111.6,581.102 9104.61,562.5 c -468.9,-8.598 -828.05,298.902 -1242.19,473.1 -351.49,147.8 -718.25,263.3 -1095.49,322.5 -397.21,62.3 -805.65,60.2 -1197.36,-36.1 -430,-105.7 -794.86,-344.598 -1251.79,-347.098 -384.51,-2.101 -742.14,137.098 -1103.1,251.398 -445.15,141 -869.75,188.9 -1335.76,150 C 499.613,1261.2 -851.84,864.699 -2238.16,827.199 c 0,131.5 0,263.101 0,394.601 1455.644,109 2817.051,761.5 4253.99,984 482.79,74.8 894.01,-7.1 1337.13,-205.9 356.23,-159.9 701.12,-364.3 1093.41,-421.8 445,-65.3 813.36,129.3 1239.07,203.1 369.33,64 746.09,43 1112.15,-31.6 373.5,-76.2 734.13,-206.1 1086.57,-349.3 401,-162.8 766.3,-401.601 1216.01,-359.4 1048.53,98.2 1808.63,1000.8 2810.43,1240.8 906.4,217.1 1350.3,-699.2 1964.6,-1167.1 344.4,-262.299 724.1,-286.299 1089.5,-44.2 457.2,302.9 900.9,877.8 1525.7,727.2 341.4,-82.3 537.1,-387.6 847.2,-521.5 483.1,-208.6 773.9,376.7 1061.1,643.2 372.8,346 821.8,287.9 1271.1,148.2 561.5,-174.4 1053.5,-331.2 1642.8,-186.9 400,97.9 834.2,49.5 1237.1,-11.6 488.1,-74.1 969,-192.5 1446.5,-316.1 985.1,-255 1989.1,-602.998 3014.3,-632.9 28.4,-114.699 57.3,-229.301 86.5,-343.801"
         style="fill:#100f0d;fill-opacity:1;fill-rule:nonzero;stroke:none"
         id="path18" />
      <path
         d="m 26946.5,1189.4 c -1059.6,36.1 -2097.2,408.1 -3113.6,678 -494.6,131.3 -992.9,257.2 -1498.9,335.9 -411.4,64.1 -860.1,117.5 -1267.7,10.5 -584.5,-153.5 -1042.5,15 -1584.2,227.4 -428.1,167.9 -834.6,225.7 -1180,-138 -248.3,-261.5 -558.2,-940.3 -1026.1,-707.7 -299.1,148.7 -461.1,476.3 -800.4,566.4 -630.8,167.6 -1106.1,-484.9 -1546.7,-800.8 -362.8,-260 -735.1,-231.1 -1065,61 -576.4,510.5 -980.2,1530.4 -1909.1,1301.2 -1024.2,-252.9 -1792.8,-1151 -2850.81,-1312.2 -443.98,-67.7 -820.01,124.3 -1222.51,280.6 -344.38,133.8 -690.04,269.7 -1049.29,358.7 -351.61,87.1 -714.21,126 -1075.09,81.7 -425.54,-52.3 -792.83,-209.1 -1226.68,-91.9 -395.35,106.8 -728.53,357.4 -1083.06,551.3 -193.32,105.7 -393.99,197.6 -608.2,251.9 -255.45,64.8 -473.51,44.4 -730.34,-8.6 C 1373.65,2683.2 665.211,2401.3 -39.7813,2149.9 -751.563,1896 -1481.68,1609.5 -2238.16,1528.9 c 0,131.5 0,263.1 0,394.7 760.25,103.8 1481.301,458.5 2175.3006,767.6 C 684,3023.8 1435.38,3406.4 2230.51,3611.6 c 259.06,66.8 474.93,89 733.31,8.6 217.3,-67.6 416.9,-178.6 605.4,-304.6 344.08,-230 655.13,-519 1037.45,-686.9 179.58,-78.9 369.4,-125.5 566.02,-128.2 219.45,-3 431.14,60.8 649.36,75.4 363.99,24.3 723.42,-40.3 1069.9,-148.6 698.52,-218.4 1453.33,-707.9 2204.62,-546.7 1052.93,225.9 1834.23,1094.7 2862.03,1383.2 994.6,279.1 1343.2,-881.2 1895.5,-1456.2 959.4,-998.901 1595.7,1151.2 2621.8,818.6 333.5,-108.1 451.3,-469.6 740.3,-629.4 436.4,-241.3 764.5,529.8 963.4,776.2 332.2,411.5 705.8,349.6 1133,131.8 215.3,-109.8 427.2,-226.1 660.9,-292.9 320,-91.5 588.9,-39.3 901.8,44.8 388.9,104.5 839.9,40.3 1229.4,-21.7 524.8,-83.5 1040.5,-218.9 1552.4,-359.2 1048.3,-287.3 2119,-692.6 3214.4,-735.8 23.7,-117.2 48.7,-234 75,-350.6"
         style="fill:#100f0d;fill-opacity:1;fill-rule:nonzero;stroke:none"
         id="path20" />
      <path
         d="m 26821.2,1817.4 c -1107.3,47.3 -2190.3,475.7 -3247.1,774.8 -518.9,146.9 -1041.9,288.9 -1574.6,376.2 -390.1,63.9 -841.2,128.5 -1230,18.9 -318.9,-90 -594,-148.6 -919.7,-43.6 -231.4,74.6 -435.9,202.9 -643.6,326.2 -170.3,101.2 -362.4,222.7 -568.5,217.6 -224.8,-5.6 -397.2,-172.6 -524.6,-341.8 -172.1,-228.7 -527.6,-1100.7 -943.8,-836.5 -279.2,177.2 -362.3,559.6 -697,679.2 -1021.6,365.2 -1701.5,-1966.1 -2630,-883.6 -297.8,347.3 -480,778.1 -756.8,1141.1 -291.1,381.7 -616.8,566.4 -1095,432.3 -1045.1,-293.2 -1840.1,-1154.8 -2892.9,-1434 -760.15,-201.7 -1483.71,226.4 -2179.96,476.6 -334.15,120 -680.47,202 -1037.5,195.3 -216.92,-4 -429.32,-55.7 -646.69,-34.2 -198.36,19.6 -385.27,86.3 -559.36,181.7 -381.16,209 -683.7,530.6 -1029.71,788.7 -185.63,138.5 -384.03,260.2 -603.88,335.8 -260.21,89.4 -475.22,63.4 -735.68,-12.2 C 1487.54,3938.6 725.598,3495.6 -29.5898,3113.5 -724.527,2761.9 -1457.65,2346.7 -2238.16,2230.6 c 0,131.6 0,263.1 0,394.7 805.27,117.9 1556.219,608.2 2250.4881,1003.6 747.2969,425.6 1499.2519,914.8 2318.4419,1192.3 259,87.7 490.75,131.3 754.71,44.2 240.66,-79.3 454.04,-223.9 647.56,-384.6 349,-289.9 644.44,-646.4 1025.54,-897 169.86,-111.7 355.04,-198 556.22,-233.6 214.34,-37.9 429.54,1.7 645.44,-8.9 338.67,-16.6 659.03,-115.1 970.13,-244.7 698.75,-291 1385.15,-636.8 2155.2,-393.9 1064.43,335.7 1891.73,1225.5 2979.53,1493.9 474.6,117.1 780.3,-98.6 1041.7,-486.7 267,-396.3 431.3,-860.6 724.5,-1239.2 885,-1143.1 1618.4,1338 2626.5,989.4 349.3,-120.7 398.2,-533.3 655.8,-746.7 381.3,-315.9 782.7,674.4 925.8,879.1 131.7,188.4 315.6,397.6 566.2,388.4 195.7,-7.3 370.4,-134.7 526.1,-240.6 205.6,-139.9 408.2,-284.7 643.4,-371.1 335.5,-123.3 635.2,-69.3 965.6,32.6 382.7,118.2 818.8,61.6 1205.7,-3.6 535.5,-90.3 1060.3,-240 1580.2,-394.2 1051.6,-311.9 2136.5,-771.7 3243.3,-822.1 14.9,-121.9 32,-243.2 51.3,-364.5"
         style="fill:#100f0d;fill-opacity:1;fill-rule:nonzero;stroke:none"
         id="path22" />
      <path
         d="m 26742.6,2472.9 c -488.1,22.6 -961.9,155 -1428.1,293.9 -586.8,175 -1165.8,374.9 -1750.6,556.4 -512.1,158.8 -1029.6,313.5 -1558.5,406 -378.8,66.3 -792.4,116.3 -1165.5,-4.4 -347.4,-112.5 -673.2,-167.5 -1025.3,-33.2 -245.2,93.6 -453.7,250.1 -664.7,402.4 -157.6,113.8 -335.7,253.6 -538.4,263.6 -262.5,13.1 -455.7,-214.9 -592.6,-410.6 -129.7,-185.4 -572.6,-1269.2 -925,-931.8 -244.5,234.1 -267,670.1 -620,804.5 -242.1,92.3 -496.4,-43.2 -693,-177.2 -387.9,-264.4 -654.2,-640.6 -989.5,-960.2 -151.3,-144.4 -352.6,-295.7 -575.3,-250.4 -172.3,35.1 -299.3,183.7 -397,319 -288.9,400.6 -441.5,885.6 -703.7,1303.1 -253,402.7 -553.7,625.4 -1037.3,511.6 C 10982.6,4308 10134.3,3429.5 9082.31,3055.7 c -770.85,-274 -1439.34,1.8 -2139.07,323.5 -303.02,139.3 -613.62,251.8 -948.11,282 -216.17,19.5 -433.4,-12.2 -646.5,37.6 -202.06,47.2 -384.75,146.6 -551.27,268.4 -378.43,276.8 -668.89,653 -1021.48,959.3 -191.34,166.3 -404.86,316.1 -648.1,394.8 -261.48,84.6 -499.15,42.6 -754.6,-46.2 C 1538.07,4984.8 780.078,4451.9 29.7109,3996.1 -657.27,3578.9 -1421.27,3036.3 -2238.16,2932.4 c 0,131.5 0,263.1 0,394.6 351.22,26.5 672.81,166.7 983.88,325.1 C -804.477,3881.2 -377.344,4155 47.2617,4427 796.68,4907.1 1561.08,5487.9 2413.96,5771.4 c 1096.15,364.4 1663.91,-749.3 2386.96,-1336 162.45,-131.8 343.13,-247.5 544.75,-308.5 213.85,-64.8 435.03,-41.3 654.16,-68.6 334.68,-41.8 638.5,-168.4 937.04,-319.5 699.69,-354 1361.02,-546.6 2126.64,-242.7 550.87,218.7 1054.19,546.1 1564.29,843.5 453.1,264.1 930.8,551 1449.7,661.2 180.2,38.3 372.7,61.8 545.9,-15.4 222.2,-99.1 375.6,-319 495.3,-521.8 259.9,-440.5 401.4,-948 689.3,-1372 95.5,-140.7 219.2,-290.4 396.2,-320.2 231.9,-39 440.8,146.8 587.7,301.5 337.9,355.8 627.8,757.8 1036.8,1039.7 195.3,134.6 457.4,272.8 693.2,159.8 355.7,-170.4 335.3,-629.8 576.3,-889.6 111.8,-120.6 223.6,-51 322.8,52.6 269,280.7 398.6,675.7 633.3,983.5 150.4,197.3 350.2,419.6 620.6,411.5 221.7,-6.7 413.9,-157.4 585.2,-282.5 243.9,-178.1 485.9,-365 774.6,-465.3 361.9,-125.8 723.6,-81.2 1078.7,43.8 356.8,125.6 717.8,95.8 1085.7,28.7 510,-92.9 1006.9,-252.8 1498,-415.9 565.7,-187.9 1124.8,-395.4 1692,-578.9 434.3,-140.5 879.1,-281.5 1337.9,-301.9 2.3,-128.8 7.5,-256.9 15.6,-385.5"
         style="fill:#100f0d;fill-opacity:1;fill-rule:nonzero;stroke:none"
         id="path24" />
      <path
         d="m 26735.3,3165.2 c -420.2,40.6 -823.3,189.7 -1217.8,333.1 -526.2,191.4 -1044.4,403.9 -1569.5,598.3 -455,168.4 -915.6,334.4 -1389.7,440.9 -324.8,73 -666.3,127.9 -987.9,18.1 -407.9,-139.2 -810.7,-201 -1231.1,-72 -293.8,90.2 -553,250.7 -815.4,406.7 -206.4,122.6 -430.9,259.8 -678.4,264.9 -317.9,6.4 -569.1,-223 -760.1,-453.5 -243.9,-294.3 -383.4,-683.2 -660.1,-947.1 -105.5,-100.7 -212.6,-146.8 -324,-31.5 -237.2,245.3 -247.7,693.9 -603.5,835.1 -243.7,96.7 -501.9,-46.1 -698.3,-182.4 -394.8,-274 -661,-663.5 -1006,-988.5 -153.2,-144.3 -356.5,-287.1 -577.3,-220.4 -178.1,53.8 -303.1,228.3 -397.9,377.3 -285,448.4 -436.4,968.7 -710.5,1423.8 -115.3,191.6 -260.9,397.4 -468.3,497.7 -197.4,95.5 -385.5,43.3 -583.6,-23.6 -1077.8,-364 -1966.4,-1140.3 -3010.26,-1581.2 -416.72,-176 -801.45,-254.2 -1247.62,-158.5 -306.95,65.9 -585.64,199.6 -866.36,335.3 -296.77,143.6 -596.08,267.9 -924.44,316.9 -216.11,32.3 -437.45,13.9 -648.61,75.6 -201.93,59 -381.98,169.8 -546.06,299.4 C 4067.6,5318 3490.43,6439.8 2377.24,6065.1 1532.29,5780.7 775.254,5203.9 33.375,4725.4 c -418.633,-270 -839.727,-541.3 -1284.165,-767.5 -312.52,-159.1 -634.89,-296.6 -987.37,-323.8 0,131.6 0,263.1 0,394.7 814.38,71.6 1570.129,640.5 2234.3475,1071.4 722.8515,469 1459.3425,1030.4 2284.1925,1307.8 1100.98,370.36 1704.54,-722.7 2459.93,-1296.8 166.34,-126.4 347.58,-234.5 549.15,-293.6 209.1,-61.3 428.6,-48.7 642.87,-79.8 319.79,-46.4 617.98,-154.1 914.35,-278.8 279.85,-117.8 558.08,-233.2 857.29,-292.7 173.97,-34.6 364.78,-68.2 541.48,-44.3 238.07,32.3 478.97,135.2 699.6,225.6 1069.65,438.7 2029.85,1101.5 3065.05,1610.1 200.6,98.6 374.7,198.8 598.1,112.4 214.7,-83 370.8,-281.6 493.4,-467.4 302.9,-459.2 477.3,-988.7 766.5,-1455.5 237.8,-383.7 576.2,-644.4 988.2,-314.9 347.2,277.6 592.4,654 968.4,905.1 198.6,132.7 449.3,261 693.3,181.1 350.8,-114.9 399.9,-525.3 657.7,-735.9 122.1,-99.7 235.7,-56.2 345.8,40.2 282.2,247.1 435.2,621.8 697.2,893.3 230.1,238.4 520.6,445.8 864.9,442.3 276.7,-2.8 532.3,-122.4 777,-240 295.3,-142 587.3,-289.9 907.5,-367.9 456.8,-111.4 874.2,-35.6 1313.6,102.9 289.9,91.3 606.5,14.4 891.4,-63.3 434.6,-118.7 855.9,-287.3 1271.9,-458.6 481.4,-198.2 956.7,-410.9 1438.4,-608.5 355.2,-145.6 716.7,-299 1097,-363.9 -21.2,-130.5 -35.8,-262.1 -45.1,-393.9"
         style="fill:#100f0d;fill-opacity:1;fill-rule:nonzero;stroke:none"
         id="path26" />
      <path
         d="m 26838.5,3865.1 c -353.8,63.2 -695.8,229.5 -1023.2,371 -453.6,196 -901.7,404.2 -1355.4,599.7 -392.9,169.2 -790.3,335.8 -1200.4,459.3 -261.8,78.9 -553.7,162.3 -826.8,97.3 -266.1,-63.4 -493.2,-155.4 -772.1,-168 -195.2,-8.9 -387.9,6.4 -579.3,47.5 -334.3,71.8 -642.5,213.2 -953.4,350.8 -276.4,122.4 -568.6,250.8 -877,246.5 -331.6,-4.7 -622.9,-176.3 -862.4,-393.9 -280.2,-254.8 -447.2,-608.7 -728.3,-855.5 -112.4,-98.6 -234.6,-152.5 -370.8,-69.5 -278.9,170.2 -360.2,550 -696.8,659.1 -254.9,82.6 -523,-45.7 -732.5,-184.2 -170,-112.4 -324.1,-248.9 -470.5,-389.9 -153.1,-147.4 -289.1,-335.3 -466.8,-453.2 -434.5,-288.4 -774.7,63.4 -1003.6,424.6 -296.3,467.4 -490,997.5 -820,1444.2 -131.7,178.4 -298.3,360.1 -518.4,422.9 -260.1,74.3 -446,-82.3 -662,-205.6 -992.3,-566.4 -2008.68,-1125.1 -3081.57,-1525 -226.55,-84.5 -467.93,-178.8 -707.04,-220.8 -173.37,-30.5 -363.07,2.3 -535.73,31.4 -291.13,49.2 -567.92,144 -845.14,242.9 -304.02,108.4 -609.94,201.4 -931.45,240.8 -213.95,26.2 -429.51,17.3 -637.69,80.1 -200.54,60.6 -382.02,167.1 -549.84,290.7 C 3892.94,5951.5 3266.58,6988.36 2214.17,6668 1388.17,6416.5 651.672,5841 -62.1094,5375.2 -711.227,4951.5 -1441.87,4407.8 -2238.16,4335.8 c 0,131.6 0,263.2 0,394.7 794.25,69.8 1514.523,612.8 2159.1092,1039 C 574.453,6201.6 1247.08,6722.53 2005.94,6954.08 3057.8,7275.03 3719.2,6263.8 4489.05,5748.5 c 171.8,-114.9 357.73,-213.4 558.4,-266.8 204.64,-54.4 417.83,-46.1 627.25,-65.5 297.13,-27.6 586.88,-88.5 875.88,-160.9 281.63,-70.7 562.65,-138.7 851.47,-173 174.52,-20.8 355.31,-45.8 527.99,-13.4 244.31,45.9 487.86,122.7 726.2,192.4 1127.32,330 2251.76,765.8 3246.46,1397.8 206.4,131.18 381.3,298.66 642,263.79 225.8,-30.19 411,-189.16 556.4,-353.69 368,-416.3 592.5,-938.6 902.3,-1395.9 245.1,-361.9 621.1,-779.5 1084.4,-494.2 178.4,109.8 314.6,296 470.2,434.3 139.1,123.6 285.5,242 445.8,337.4 203.7,121.2 443.8,216.2 683.3,162.7 340.3,-76 478.1,-410.8 770.3,-554.8 139.9,-69 271.4,-31 393.3,57 105.2,75.9 186.8,180.3 267.6,280 160.7,198 322.5,385.9 525,543.1 565.3,438.9 1135.7,342.4 1751.4,78.2 338.4,-145.3 674.7,-300.4 1038.1,-372.5 428.4,-84.9 857.7,-50.4 1271.6,87 282.7,93.8 589.2,-4.2 863.2,-91.3 386.9,-123.1 762.3,-282.8 1134.1,-445.2 404.4,-176.6 804.5,-362.8 1207.7,-541.9 330.5,-146.9 672.8,-318 1028.4,-395.1 -37.1,-129.9 -70,-261 -99.3,-392.9"
         style="fill:#100f0d;fill-opacity:1;fill-rule:nonzero;stroke:none"
         id="path28" />
      <path
         d="m 27030.2,4563.5 c -343,77.1 -673.1,237.4 -993.9,376.9 -389.8,169.3 -776.8,345 -1167.6,511.9 -360.8,154.1 -725,305.6 -1099.3,424.3 -273.2,86.6 -554.4,171.6 -837.5,101.9 -450.2,-110.8 -866.1,-166.7 -1324.4,-58.8 -339,79.8 -655.5,226.9 -972.3,367.8 -274.9,122.2 -560.8,247.4 -863.9,274.7 -351.7,31.7 -678.7,-92.9 -959.1,-299.1 -283.4,-208.5 -467.2,-524.3 -751,-724.2 -128,-90.2 -269.8,-135.1 -421.9,-82.7 -317.7,109.5 -505.4,431.5 -856.9,483.9 -245.7,36.6 -486,-58.3 -694.6,-179.6 -156.1,-90.7 -300.9,-200.3 -437.5,-318 -149,-128.5 -278.5,-293.4 -451.1,-389.5 -467.6,-260.4 -871.9,208.2 -1120.7,549.6 -321.7,441.4 -573.1,955.5 -973.2,1334.66 -161.8,153.33 -360.7,281.87 -590.2,284.01 -292.2,2.72 -487.9,-211.89 -719,-360.52 C 10803.8,6222.8 9637.17,5913.2 8495.37,5669 c -260.95,-55.8 -525.98,-127.8 -790.18,-164.5 -166.9,-23.2 -342.87,-3.2 -510.5,9.5 -268.97,20.2 -535.18,59.4 -801.59,100.3 -294.48,45.3 -589.1,83 -886.81,98.9 -442.78,23.6 -802.31,73.6 -1185.65,315.8 C 3542.7,6520.6 2847.45,7480.55 1813.99,7161.2 1089.79,6937.41 451.016,6442 -171.602,6026.1 -788.93,5613.8 -1474.49,5100.3 -2238.16,5037.6 c 0,131.5 0,263.1 0,394.6 718.3,51 1353.883,522.7 1930.566,913.9 590.282,400.56 1201.422,887.72 1899.284,1083.35 993.43,278.48 1736.52,-621.23 2515.88,-1063.95 633.04,-359.6 1342,-270.2 2042.85,-279.1 268.29,-3.3 536.56,-6.4 804.88,-6.5 429.07,-0.2 843.9,64.6 1270.64,108.3 1200.59,123.1 2455.96,252.6 3494.96,924.12 246.8,159.54 452.9,397.12 755.2,443.18 232,35.34 449.2,-49.79 635.3,-184.36 455.5,-329.3 750.5,-846.84 1105.1,-1272.54 269.7,-323.8 669.8,-748.9 1135.5,-559.9 166.5,67.6 285.9,214.2 423.1,326.3 151.7,123.9 313.4,241 486.9,332.9 212.5,112.5 449.3,189.3 692,166 352.1,-33.8 598.7,-303 932.3,-376.8 163.2,-36.2 313.1,3.9 453.3,91.8 279.6,175.2 468.7,462.1 749.4,642.21 626.8,402.2 1233.5,190.1 1849,-110.21 309,-150.7 619.7,-303.1 954.5,-388.2 441.8,-112.2 840.6,-62.8 1278.2,33.1 252.8,55.3 516.8,-22.5 760.9,-92.4 384.5,-110.2 758.9,-256.4 1130.1,-404.3 378.8,-151 754.4,-309.7 1132.5,-462.4 314.1,-126.8 636.2,-271 969.1,-340.9 -46.3,-130.1 -90.8,-260.9 -133.1,-392.3"
         style="fill:#100f0d;fill-opacity:1;fill-rule:nonzero;stroke:none"
         id="path30" />
      <path
         d="m 27274.3,5260.9 c -714.2,130.6 -1408.4,478.1 -2086.8,726.2 -369.2,135 -741.1,268 -1121.7,367.9 -270.8,71.1 -543.8,138.5 -820.6,74.5 -801.3,-185.3 -1455.8,82.1 -2151.9,454.14 -561.6,300.11 -1137.5,546.45 -1746.9,214.33 -418.5,-228.11 -731.5,-778.27 -1270.1,-690.37 -347.6,56.7 -637.1,282.01 -998.5,294.75 -247.9,8.74 -485.2,-68.75 -704,-179.55 -145.9,-73.9 -283.4,-164.5 -414.4,-262.1 -139.2,-103.7 -268.6,-247.2 -428,-318.9 -477.8,-215.1 -933.3,246.9 -1225.2,563.7 -369.2,400.61 -701,906.15 -1187,1176.01 -207.5,115.23 -439,168.29 -672.4,104.08 -287.8,-79.21 -488.2,-310.17 -729.5,-471.41 C 10631.9,6589.2 9298.4,6611.9 8046.22,6596.2 7345.3,6587.4 6638.91,6529 5941.61,6454.5 c -269.8,-28.9 -539.79,-53.6 -810.8,-67.8 -445.2,-23.3 -825.61,39.7 -1223.73,249.3 -790.23,415.91 -1563.6,1253.2 -2541.19,982.58 C 708.805,7436.7 136.863,6974.96 -415.27,6594.7 c -544.246,-374.8 -1140.67,-814.5 -1822.89,-855.4 0,131.6 0,263.1 0,394.7 635.64,28 1181.2,425.9 1683.469,779.89 502.6363,354.21 1021.925,782.4 1626.851,945.05 974.04,261.88 1793.09,-526.5 2614.54,-900.37 387.83,-176.51 769.35,-244.94 1192.26,-195.63 279.03,32.54 551.04,94.54 822.14,166.69 707.91,188.42 1382.57,256.88 2116.89,181.9 1257.8,-128.41 2627.91,-363.29 3766.01,348.79 503.5,315.01 888.5,847.16 1547.8,598.36 519.3,-195.93 903.4,-671.82 1294.2,-1043.87 331.7,-315.8 787.6,-737.11 1287.6,-576.21 154.7,49.9 276.7,179.8 409.5,271.38 129.7,89.47 264.9,172.05 407.1,240.33 236.6,113.64 493.6,187.25 757.5,187.85 371.6,0.87 710.1,-169.9 1076.9,-191.4 527.6,-30.95 815.1,391.27 1251.4,599.54 621.8,296.82 1189.2,-27.35 1719.3,-355.32 646.1,-399.71 1261.2,-689.38 2037.9,-539.28 275,53.12 556.3,-5.5 826.2,-66 379.9,-85.2 753.2,-198.9 1124.4,-315.6 683.2,-214.7 1384.4,-519.1 2097.4,-617.1 -49.1,-130.6 -98.3,-261.2 -146.9,-392.1"
         style="fill:#100f0d;fill-opacity:1;fill-rule:nonzero;stroke:none"
         id="path32" />
      <path
         d="m 27535,5958.1 c -716.8,71.4 -1428,340 -2120,527.3 -375.1,101.5 -751.8,200 -1133.7,272.33 -273.8,51.87 -559.8,101.52 -837.7,56.65 -777.4,-125.54 -1366.4,208.71 -1983.1,640.15 -473.4,331.22 -991.7,679.37 -1589.1,463.91 -286.6,-103.37 -498.5,-327.91 -776.7,-446.44 -170.8,-72.79 -351.3,-105.84 -536.8,-103.45 -384.7,4.96 -756,128.41 -1143.3,108.02 -246.7,-12.98 -487,-74.78 -713.8,-171.95 -157.5,-67.49 -308.7,-151.21 -453,-243.39 -129,-82.44 -245.8,-192.37 -395.8,-233.72 -506.2,-139.6 -980.6,275.65 -1335,578.75 -408.5,349.29 -834.8,801.5 -1375.6,932.26 -681.9,164.85 -1045.5,-379.19 -1552.5,-710.92 -1194.1,-781.36 -2643.29,-368.56 -3933.25,-125.53 -460.49,86.75 -907.64,139.07 -1369.91,43.03 -263.07,-54.66 -512.59,-148.6 -762.28,-245.67 -263.38,-102.39 -528.59,-192.73 -807.89,-240.85 -430.32,-74.13 -833.73,1.61 -1234.62,168.06 C 2650.75,7571.35 1802.5,8298.67 843.203,8046.22 -284.898,7749.36 -1024.09,6478.6 -2238.16,6441 c 0,131.6 0,263.16 0,394.71 1122.43,16.85 1764.406,1195.33 2801.715,1458.24 942.115,238.78 1826.815,-415.41 2666.845,-723.45 402.91,-147.75 823.57,-233.19 1248.23,-138.76 287.99,64.03 551.67,187.11 810.87,324.68 245.13,130.1 489.46,259.85 757.38,337.41 467.82,135.42 902.52,42.92 1363.07,-89.15 1284.21,-368.26 2781.75,-1033.41 4051.35,-258.89 569.3,347.25 938.5,1025.39 1693.7,947.53 564.4,-58.2 1040,-466.14 1476.7,-792.19 385,-287.51 876.7,-686.64 1393.8,-579.22 160,33.26 296.7,146.6 437.8,223.7 124.2,67.81 252.2,128.94 383.8,180.63 233.2,91.55 475.8,153.85 725.1,180.49 408.8,43.68 816.1,-23.29 1225,-3.91 209.4,9.92 415.1,47.46 611.2,122.76 249.1,95.72 458.9,273.38 717.4,345.71 598.8,167.56 1100.5,-267.87 1530.7,-620.42 554,-454.01 1092.6,-815.91 1838.1,-732.3 641.7,72 1320.6,-108.98 1944,-240.86 734.7,-155.41 1484.3,-382.31 2236.9,-427.41 -45.2,-131.3 -92.5,-261.9 -140.5,-392.2"
         style="fill:#100f0d;fill-opacity:1;fill-rule:nonzero;stroke:none"
         id="path34" />
      <path
         d="m 27776.4,6655.6 c -764.7,33.07 -1523.9,210.63 -2276.5,338.15 -647.1,109.62 -1324.7,247.64 -1983.6,188.66 -715.1,-63.99 -1224.8,333.98 -1724.7,794.76 -390.4,359.81 -856.5,846.65 -1441.8,752.05 -268.6,-43.4 -496.6,-210.17 -752.7,-294.52 -192.6,-63.45 -392.5,-100.24 -594,-120.58 -425.9,-42.99 -855.6,-18.08 -1280.7,-74.66 -264.8,-35.25 -525.4,-98.07 -776.2,-190.28 -250.4,-92.05 -495.6,-282.31 -752.6,-337.84 -519.3,-112.18 -1027.6,268.08 -1431.3,540.27 -461.4,311.17 -965.6,689.78 -1544,716.33 -325.3,14.94 -633,-104.13 -891.5,-296.94 -327.6,-244.44 -556,-584.2 -910.1,-799.6 -1316.4,-800.79 -2841.6,37.08 -4117.72,497.27 -276.28,99.63 -561.71,196.64 -855.44,227.35 -176.23,18.41 -357.86,-30.1 -524.63,-85.32 -276.39,-91.52 -521.08,-244.01 -766.7,-396.77 -257,-159.86 -518.53,-307.57 -813.32,-385.49 -418.39,-110.6 -845.34,-30.88 -1250.45,99.82 -862.82,278.37 -1781.97,899.23 -2728.436,666.4 C -612.48,8255.43 -1180.41,7147.71 -2238.16,7142.78 c 0,131.56 0,263.12 0,394.67 1000.49,-3.66 1486.152,1050.65 2410.75,1240.32 928.52,190.49 1846.87,-348.21 2710.17,-594.29 408.37,-116.4 850.47,-200.9 1267.51,-84.13 320.61,89.76 596.23,269.95 865.52,459.84 250.12,176.39 501.13,354.3 791.32,459.22 151.92,54.92 323.69,105.75 486.16,92.58 312.57,-25.32 627.16,-171.67 908.75,-298.62 1236.24,-557.35 2822.38,-1622.88 4168.78,-769.76 372.3,235.84 599.2,605.78 930.5,885.24 250.9,211.68 543.8,371.47 874.7,405.89 614.1,63.88 1180.7,-284.83 1684.3,-588.89 421.5,-254.44 949.1,-641.1 1472.6,-554.15 262.4,43.61 517.5,200.23 773,280.75 239.2,75.37 483.5,132.67 730.3,176.91 462.9,83.02 932.9,112.24 1397.4,184.1 210.1,32.5 418.9,74.24 623.4,132.81 243.9,69.85 480.8,203.95 739,206.21 566.4,4.95 985,-525.48 1338,-898.03 414.8,-437.86 880.9,-891.12 1526.9,-868.14 1490.1,52.99 2943.9,-338.84 4429.2,-357.05 -34.3,-131.89 -72.9,-262.66 -113.7,-392.66"
         style="fill:#100f0d;fill-opacity:1;fill-rule:nonzero;stroke:none"
         id="path36" />
      <path
         d="m 27962.4,7354.05 c -789.7,-2.53 -1579.3,95.69 -2365,164.39 -715.9,62.6 -1419.4,91.97 -2136.7,85.28 -639.6,-5.98 -1084.1,497.02 -1470.7,943.21 -331.8,382.91 -721.8,921.57 -1275.5,956.78 -234.2,14.89 -459.2,-82.48 -682.9,-138.74 -227.7,-57.27 -457.8,-104.49 -688.5,-147.74 -482.5,-90.45 -968.3,-163.19 -1448.8,-264.36 -245.6,-51.7 -489.6,-110.59 -731.1,-179.14 -242.4,-68.85 -494.6,-196.91 -745.3,-221.86 -529.5,-52.7 -1058.6,332.87 -1494.8,579.28 -507.5,286.67 -1078.5,589.92 -1681.6,508.8 -365,-49.1 -689.9,-241.94 -956.7,-489.21 -331.4,-307.23 -554.7,-701.14 -938.9,-953.87 -1365.01,-897.99 -2961.38,314.03 -4168.65,935.21 -278.97,143.54 -585.51,302.93 -901.17,341.48 -177.48,21.68 -366.13,-35.06 -531.3,-98.37 C 5443.38,9259.66 5185.76,9064.7 4927.91,8875.28 4660.69,8678.97 4384.62,8489.3 4062.58,8395.72 3646.88,8274.91 3201.78,8351.87 2790.13,8456 1907.17,8679.34 957.25,9197.37 20.9609,9006.46 -854.883,8827.87 -1284.37,7840.02 -2238.16,7844.51 c 0,131.56 0,263.12 0,394.68 462.49,1.3 806.04,205.07 1148.47,497.86 290.76,248.6 579.627,509.92 966.194,589.45 927.32,190.78 1902.166,-290.52 2787.186,-494.47 415.76,-95.81 871.31,-175.44 1291.77,-66.63 356.43,92.23 659.92,301.53 953.2,515.8 274.72,200.7 550.7,406.86 873.96,523.04 170.74,61.38 370.93,117.39 552.78,88 313.47,-50.66 607.08,-221.59 877.08,-380.12 1142.83,-671.04 2768.97,-2073.16 4117.82,-1087.1 387,282.98 606.3,710.67 939.1,1045.81 272.2,274.15 597.4,502.47 981.5,581.27 614.8,126 1205.4,-138.11 1736.7,-421.24 462.1,-246.27 1004.5,-655.54 1555.1,-626.41 219.9,11.64 448.2,91.16 661.8,142.28 258.9,61.92 517.3,125.61 775.6,189.56 485.4,120.17 970.5,241.67 1457.9,353.7 236.6,54.38 473.7,106.56 711.7,154.47 234.3,47.16 476.9,117.94 716.1,68.47 536,-110.87 893,-655.76 1212.9,-1053.37 349.3,-434.04 767.5,-957.64 1376.2,-964.43 726.8,-8.13 1448.5,-12.93 2175.3,-52.1 798.5,-43.04 1599,-104.07 2399.1,-95.48 -16.6,-132.02 -39.9,-263.25 -66.9,-393.5"
         style="fill:#100f0d;fill-opacity:1;fill-rule:nonzero;stroke:none"
         id="path38" />
      <path
         d="m 28057.2,8054.12 c -805.8,-4.87 -1611.7,33.17 -2416.9,61.58 -731.1,25.79 -1463.7,17.51 -2194.2,42.17 -591.6,19.97 -993.4,539.96 -1329.3,965.98 -320.8,406.85 -667,943.55 -1194.7,1093.85 -444.1,126.4 -1007.8,-62.6 -1439.8,-175.7 -502.6,-131.68 -997.3,-291.25 -1497.8,-430.22 -439.4,-122 -940.8,-288.33 -1402.1,-273.47 -554.7,17.86 -1081.7,434.24 -1554.1,683.39 -542.4,286.2 -1148.6,533.4 -1769.3,379.1 -394.1,-98 -722.4,-348.8 -995.7,-640.9 -334,-356.98 -547.4,-811.9 -932,-1122.74 -1321.1,-1067.71 -2943.23,452.12 -4037.5,1147.75 -253.77,161.33 -540.51,347.39 -844.67,389.09 -188.74,25.9 -392.8,-19.3 -572.04,-77.4 -343.89,-111.49 -639.77,-321.93 -933.96,-525.72 -313.58,-217.23 -638.37,-430.28 -1016.19,-514.22 -426.67,-94.8 -886.75,-16.11 -1307.43,75.53 -458.04,99.78 -904.94,243.75 -1360.99,351.58 -456.707,107.98 -976.86,213.47 -1444.395,116.45 -375.008,-77.82 -648.605,-323.9 -927.615,-568.83 -334.3,-293.47 -670.57,-477.72 -1124.67,-485.14 0,131.56 0,263.12 0,394.67 446.2,23.39 786.34,198.13 1123.96,480.16 281.802,235.4 557.071,465.59 924.661,548.15 466.957,104.87 988.273,-15.4 1447.379,-114.67 452.65,-97.89 899.07,-222.99 1353.07,-314.85 430.67,-87.13 893.03,-170.74 1331.54,-99.81 399.17,64.57 755.76,253.8 1101.72,453.79 326.77,188.91 653.3,383.61 1019.15,487.41 192.07,54.5 406.13,96.4 606.86,85.2 292.3,-16.3 567.72,-186.2 808.58,-338.7 1045.08,-661.72 2609.14,-2233.13 3869.04,-1134.26 369,321.87 576.5,780.79 910,1135.76 274.8,292.5 603.3,543.7 996.3,648.8 616.6,164.8 1225.4,-57.8 1773,-335.1 485.2,-245.8 996.2,-644.62 1551.7,-702.5 456.6,-47.57 949.2,106.16 1380,237.92 506.4,154.88 1002.3,343.28 1511.9,487.98 446.1,126.6 995.6,284.3 1450.3,121.7 519.8,-186 867.3,-688.6 1202.5,-1098.41 332.4,-406.34 733.9,-907.01 1303.8,-932.81 732.3,-33.14 1469.3,-20.76 2202.9,-52.02 807.5,-34.41 1617.4,-81.4 2425.8,-60.05 9.4,-129.84 7.7,-260.56 1.2,-390.49"
         style="fill:#100f0d;fill-opacity:1;fill-rule:nonzero;stroke:none"
         id="path40" />
      <path
         d="m 28021.7,8730.1 c -817.9,-45.19 -1642.6,43.6 -2457.3,105.94 -414.2,31.68 -828.5,63.5 -1243.5,82.77 -328.5,15.25 -658.4,-7.12 -985.6,7.5 -547.5,24.45 -954.5,498.36 -1286.4,880.96 -347.8,400.83 -700,864.13 -1208.9,1066.13 -459.4,182.4 -993.4,44.5 -1449.4,-88 -504.8,-146.6 -993,-343.6 -1492.9,-505.3 -430.7,-139.3 -921.4,-295.8 -1380.3,-246.4 -550.7,59.2 -1058,420.1 -1550,647.4 -546.8,252.8 -1145.1,443.9 -1746.8,282.7 -382.6,-102.4 -707.9,-337.4 -983.6,-615.4 -328.9,-331.8 -534.3,-769.29 -889.4,-1073.91 -1218,-1044.66 -2719.58,537.04 -3734.77,1138.81 -239.24,141.8 -511.53,286.6 -797.68,274.7 -210.87,-8.8 -430.64,-55.9 -633.62,-111.5 -373.99,-102.4 -719.99,-274.8 -1068.91,-440.2 -366.37,-173.59 -741.97,-328.16 -1147.65,-377.16 -444.84,-53.73 -904.45,29.91 -1342.82,104.62 -442.66,75.44 -881.45,171.54 -1323.45,250.64 -459.817,82.2 -976.372,207.1 -1439.305,101.1 -364.993,-83.6 -657.27,-294.88 -954.925,-510.55 -351.91,-254.98 -704.08,-422.47 -1142.63,-456.96 0,131.56 0,263.11 0,394.67 422.32,39.44 792.39,179.16 1161.31,382.84 337.959,186.6 668.803,374.6 1051.2797,453.3 447.6993,92.1 932.4293,-14.6 1382.7703,-61.7 439.34,-46 878.42,-94.4 1317.8,-139.9 445.29,-46.2 898.26,-119 1346.28,-83.8 396.9,31.1 778.24,138.6 1151.74,271.8 370.7,132.2 735.77,279.2 1116.45,381.5 217.26,58.4 440.62,107 662.69,142.8 281.42,45.3 543.94,-64 787.19,-197.5 983.63,-539.9 2400.45,-2159.01 3585.55,-1204.44 342.2,275.61 546.1,688.14 863.9,992.24 272.4,260.7 595.8,477 961.6,579.5 575.3,161.2 1163.2,9.6 1701.7,-207 482,-193.9 965.9,-488 1488.6,-554.7 459,-58.6 944.3,98.9 1372,248.1 505.9,176.4 996.8,396.2 1510.6,549.9 452.8,135.5 945.6,242.7 1397.9,56.3 495.3,-204.1 859.5,-613.2 1223.2,-990.6 339.4,-352.18 743,-762.69 1262.8,-793.68 333.7,-19.9 668,1.57 1003.6,-27.98 431.2,-37.97 860.6,-95.54 1289.6,-152.73 835.1,-111.31 1693.9,-269.4 2539.2,-213.74 32.7,-113.68 59.8,-226.87 82.1,-343.07"
         style="fill:#100f0d;fill-opacity:1;fill-rule:nonzero;stroke:none"
         id="path42" />
      <path
         d="m 27850.8,9324.41 c -876.6,-49.87 -1769.1,172.2 -2625.8,329.78 -443.7,81.63 -887.9,163.85 -1335.5,221.55 -343.9,44.32 -682.7,33.47 -1025.3,55.55 -481.7,31.05 -873.1,363.41 -1211.8,675.21 -378,348.1 -747.1,717.4 -1225.3,926.3 -932.9,407.5 -2006.1,-271.3 -2866.7,-596.1 -425.9,-160.7 -900.6,-322.5 -1362.6,-271.5 -509.8,56.4 -986.7,309.9 -1465.6,477.1 -551.9,192.7 -1143.6,307.3 -1714.1,120.6 -332.5,-108.8 -624.9,-306.1 -881.6,-540.5 -309.6,-282.9 -510.7,-672.4 -842.9,-927.09 -552.1,-423.13 -1211.2,-199.98 -1751.1,122.62 -598.46,357.57 -1111.18,854.27 -1731.35,1175.57 -243.12,125.9 -509.53,217.7 -782.57,145.4 -211.37,-56 -425.96,-100.6 -637.87,-156.1 -385.75,-101.1 -763.77,-228.3 -1147.76,-335.4 -397.22,-110.8 -800.87,-188.2 -1213.71,-204.2 -445.35,-17.3 -892.06,44.1 -1337.4,58 -408.97,12.8 -818.2,12.5 -1227.21,23.5 -451.68,12.1 -923.325,100.2 -1369.5284,22.8 C -717.156,10506.8 -1405.45,10026 -2238.16,9949.72 c 0,131.58 0,263.08 0,394.68 845.09,64.2 1636.637,368.4 2473.14,476.5 446.989,57.8 897.92,1.8 1347.96,45.9 399.2,39.2 794.18,112.9 1193.87,147.7 441.36,38.5 876.29,-4.5 1317.65,-4.6 397.88,0 793.82,33.5 1185.37,104.5 393.25,71.4 780,174.4 1166.18,276.3 235.01,62 469.68,121 698.93,199.7 248.09,85 510.05,1.7 735.72,-107.5 616.78,-298.2 1113.18,-811.7 1678.41,-1191.3 496.13,-333.15 1123.13,-631.38 1679.93,-256.8 321.2,216.1 523.9,581.7 814.7,837.7 263.8,232.3 567.3,425.3 903.4,533.4 521.7,167.8 1066.3,102.8 1585.7,-37.7 470,-127.1 935.5,-330.1 1424.6,-371.3 461.9,-38.9 921.6,128 1340.2,304.8 847.8,358.2 1816.8,1013.5 2755.5,615 461.3,-195.9 844.9,-507.3 1240.9,-806.9 362,-273.8 764.3,-531.2 1233.7,-543.1 827.5,-20.9 1618.8,-222.1 2419.1,-424.4 888.5,-224.55 1828.1,-538.4 2754.3,-511.03 50.9,-100.23 97.8,-202.52 139.7,-306.86"
         style="fill:#100f0d;fill-opacity:1;fill-rule:nonzero;stroke:none"
         id="path44" />
      <path
         d="m 27587.2,9860.42 c -971.4,-0.42 -1950.4,390.48 -2867.1,671.88 -815.8,250.4 -1647.6,533.5 -2507.2,556.4 -938.1,24.9 -1645.1,788.8 -2476.2,1129.6 -953.3,390.9 -1853.1,-270.6 -2697.9,-655.3 -413.7,-188.3 -857.2,-348.7 -1318.6,-310.9 -472.8,38.7 -927.5,199.8 -1391.4,289.4 -511,98.6 -1035.9,110.9 -1529.4,-75.6 -302.1,-114.1 -574.1,-291.6 -819.3,-500.1 -277.8,-236.1 -479.3,-578.7 -792.4,-767.6 -555.4,-334.93 -1176.8,43.4 -1630.46,377.8 -542.01,399.6 -1027.76,928.7 -1643.45,1217.9 -239.31,112.4 -483.78,159.4 -736.32,67.5 -233.49,-85 -468.89,-156.2 -709.41,-220.2 -384.74,-102.3 -774.69,-186.4 -1170.89,-229 -824.58,-88.7 -1667.46,88.4 -2480.99,-80.7 -368.92,-76.7 -723.98,-206.8 -1091.6,-288.8 -442.21,-98.5 -880.756,-67.7 -1328.228,-103.6 -881.34,-70.8 -1750.882,-238 -2634.512,-287.6 0,131.5 0,263.1 0,394.6 954.84,24.1 1909.953,7.7 2864.863,24.8 453.177,8 874.317,13.1 1298.527,192.9 343.81,145.8 657.32,355.2 1007.27,487.5 767.74,290.4 1606.87,43.4 2403.67,58.1 398.72,7.4 791.8,70.2 1175.91,176.4 229.67,63.5 456.61,136.2 674.35,232.3 272.64,120.4 528.4,88.7 794.26,-40.6 615.44,-299.1 1086.86,-852 1610.33,-1279.3 402.11,-328.3 978.18,-765.3 1521.58,-503.8 303.5,146 508.4,463.8 765.8,675.1 237.5,194.9 496.7,363.8 780.8,482.8 460.5,193 954.4,230.7 1447.3,185 447.7,-41.5 888.9,-150.1 1338.8,-168.6 462.1,-19.1 886.1,149.5 1290.4,357.9 430.4,221.9 839.6,492.5 1292.1,669.5 455.1,177.9 835.8,176.2 1287.6,-2.3 814.3,-321.7 1549.6,-803.7 2450,-816.1 398.6,-5.6 786.8,-108.5 1166.2,-223.7 525,-159.4 1039.2,-352.9 1552.8,-545.2 506.9,-189.8 1013.1,-382.2 1527.2,-551.9 454.5,-150 922.2,-290.2 1403.2,-310.2 59.2,-94.4 117,-189.62 172.4,-286.28"
         style="fill:#100f0d;fill-opacity:1;fill-rule:nonzero;stroke:none"
         id="path46" />
      <path
         d="m 27275,10365.9 c -504.7,37.6 -990.6,208.4 -1461,386.4 -537.8,203.4 -1066,430.8 -1595.3,655 -533.8,226 -1068.2,454.8 -1616.5,643.7 -365.1,125.8 -754.5,259.9 -1144.6,267.4 -404.4,7.8 -786.4,8.6 -1181.6,110.9 -444.3,114.9 -871.6,293.1 -1299.6,456.4 -228.8,87.2 -437.9,172.7 -687.1,159.6 -203.5,-10.7 -399.8,-71 -586.6,-149.9 -441.7,-186.7 -833.8,-472 -1250.7,-705.4 -398.5,-223.1 -805.5,-387.6 -1268.4,-375.4 -419.1,11 -835.5,70.1 -1254.9,72.8 -476.4,3.1 -946.7,-74.6 -1382.2,-273.7 -269.8,-123.4 -518.8,-286.3 -750.1,-471.1 -242,-193.3 -450.4,-491.3 -746.6,-602 -552.1,-206.3 -1112.8,306.2 -1486.58,643 -497.53,448.3 -966.89,1039.1 -1588.51,1320.6 -245.22,111.1 -506.7,147.7 -754.79,23.3 -219.29,-110 -446.12,-196.2 -682.67,-264.3 -383.86,-110.4 -776.77,-159.2 -1175.79,-139.6 -787.51,38.8 -1627.56,349.2 -2365.06,-54.6 -335.77,-183.9 -613.22,-454.2 -941,-650.3 -392.26,-234.8 -789.13,-267 -1237.185,-255 -1021.324,27.3 -2033.625,188.9 -3056.375,189.5 0,131.6 0,263.1 0,394.7 1098.72,-35.8 2155.7498,-370.8 3247.67,-463.7 468.03,-39.8 854.85,15.9 1220.57,329.2 307.67,263.5 534.64,609.3 851.63,862.9 690.35,552.4 1527.48,162.4 2303.07,55.5 379.44,-52.3 754.75,-25.8 1122.67,82.5 239.17,70.3 467.96,167.4 685.57,287.9 268.23,148.5 547.32,134.9 819.95,3.2 602.98,-291.4 1052.13,-884.9 1511.97,-1352.4 347.66,-353.5 881.56,-949.6 1443.16,-823.4 286.2,64.3 497.5,332.7 721.4,504.9 223.1,171.6 458.4,327.5 708.7,456.6 392.5,202.5 815.8,330.3 1253.3,386.9 412.3,53.2 828.2,46.3 1242.9,50.8 445.3,4.8 821.7,167 1195.7,400 398.2,248.1 766.8,553.5 1194.1,752.3 176.7,82.2 367.7,147.1 564.1,154.8 248.9,9.9 460.7,-91.6 689.8,-174.6 419.5,-152 853,-278.8 1300.2,-308.1 397.3,-26 783.7,50.5 1178.8,55.9 426.6,5.8 881.6,-198.9 1268.3,-357.7 543.7,-223.4 1073.9,-478.5 1603.2,-733.7 556.2,-268.2 1110.9,-540.2 1677,-787 488.6,-213 995.7,-422.9 1529,-483.6 59.5,-94.1 120,-187.7 180.4,-281.2"
         style="fill:#100f0d;fill-opacity:1;fill-rule:nonzero;stroke:none"
         id="path48" />
      <path
         d="m 26958.3,10868.5 c -552.5,77.3 -1073.3,316.2 -1573,554.4 -585.6,279.2 -1158.2,584.3 -1732.7,885.3 -545.3,285.6 -1091.4,571.2 -1653.2,823.3 -381.2,171 -865.7,419.7 -1293.6,402.1 -397.6,-16.3 -786.4,-154.1 -1184,-184.7 -440.7,-34 -872.7,52.5 -1288.4,195.2 -244,83.7 -473.7,209.3 -738.5,194.7 -191.6,-10.6 -376.2,-79.8 -545.3,-166.8 -399.8,-205.7 -740.4,-511.1 -1110.1,-763.4 -363.7,-248.2 -726.3,-415.5 -1170.1,-432.6 -403.1,-15.5 -805.8,-49.7 -1198.9,-144.5 -417.1,-100.6 -813.8,-265.2 -1186.8,-476.2 -234.6,-132.8 -459.2,-283.1 -675.5,-443.9 -199.6,-148.3 -401.6,-376.7 -655.7,-421.6 -583,-102.8 -1118.85,581.1 -1456.26,954 -441.25,487.8 -884.33,1105.7 -1494.3,1393.7 -253.87,119.9 -530.42,137.9 -780.56,-3.6 -224.29,-126.9 -445.31,-246.3 -692.4,-325.8 -378.47,-121.7 -762.37,-136.6 -1150.37,-54 -367.62,78.2 -721.66,207.7 -1092.91,271.3 -440.13,75.4 -800.08,7.1 -1123.05,-317.8 -304.14,-305.9 -493.16,-704 -781.61,-1023 -337.5,-373.2 -705.77,-461.3 -1193.35,-402.7 -1158.7759,139.2 -2254.98,609.1 -3425.85,673 0,131.6 0,263.2 0,394.7 1259.996,-97.1 2398.945,-729.8 3639.13,-926 239.59,-37.9 461.99,-66.2 687.01,44 199.39,97.7 349.26,267.5 471.54,449.1 253.58,376.6 399.73,816.7 669.66,1183.1 277.18,376.3 617.7,506 1073.33,415.8 381.67,-75.5 730.57,-246.8 1101.56,-356.6 364.74,-108 730.92,-110 1092.4,14.5 512.27,176.5 918.32,655.6 1489.5,400.3 619.17,-276.7 1058.98,-937.6 1475.2,-1444.3 213.56,-260 428.5,-522.2 676.03,-751.1 188.1,-173.9 426.2,-366.8 694.6,-381 266.9,-14.1 473.2,185 678.2,327.9 209.2,146 420,289.7 635.1,426.9 351.7,224.2 716.2,433 1104.6,587.3 354.2,140.8 725.9,230.3 1106.5,257.5 461.6,33.1 810.7,193.3 1179.3,472.8 350.3,265.6 667.6,587.4 1055.3,800.3 161.7,88.8 337.1,156.2 523.4,160.5 250.4,5.7 468.5,-126.1 699.6,-204.1 452.3,-152.6 915.1,-196.7 1380.1,-78.7 390,98.8 804.1,333.9 1211.8,337 182.2,1.4 395,-85 561.6,-145.8 243,-88.8 478.9,-197.4 711.2,-310.9 582.1,-284.4 1144.7,-608.3 1706.7,-929.9 628.5,-359.6 1253.8,-726.1 1898.3,-1056.7 479,-245.8 975.7,-492.6 1511.3,-581.1 51.5,-99 106.3,-196.1 163.5,-291.9"
         style="fill:#100f0d;fill-opacity:1;fill-rule:nonzero;stroke:none"
         id="path50" />
      <path
         d="m 26681.2,11396 c -549,97.4 -1054.2,368.2 -1539.1,632.8 -661.3,360.9 -1301.6,758.8 -1945.7,1148.9 -573.1,347.2 -1146.6,696.8 -1742.5,1003.9 -234.1,120.6 -472.4,236.4 -718.7,330.3 -169.4,64.5 -369.1,148 -552.9,141.8 -428,-14.7 -844.8,-304.8 -1239.1,-444.2 -464.1,-164.2 -930.4,-148.7 -1396.1,5.3 -233.7,77.3 -457.9,224.4 -710.8,223 -182,-1.1 -355,-73.1 -509.8,-163.2 -379.8,-221.3 -681.9,-559.3 -1020.8,-834.6 -347.5,-282.4 -678.5,-445.4 -1124.8,-484.1 -381.3,-33.2 -741.7,-160.6 -1078.9,-337.8 -368.2,-193.5 -708.9,-435.5 -1050.3,-671.7 -215.6,-149.3 -431.5,-298 -651.7,-440.4 -178.8,-115.7 -353.2,-251 -577.2,-227.7 -270.1,28.2 -498.2,233 -681.9,417.3 -243.39,244.2 -453.42,520.6 -663.2,793.3 -413.49,537.6 -864.12,1268.4 -1519.72,1535.5 -571.68,232.9 -964.43,-271.7 -1463.38,-456.9 -375.41,-139.4 -746.36,-123.1 -1117.73,17.4 -351.81,133.1 -678.87,320.1 -1049.32,401.9 -469.46,103.6 -799.12,-69 -1046.77,-475.3 -254.38,-417.3 -370.55,-902.4 -612.51,-1326.1 -111.38,-195.1 -252.44,-389.3 -456.65,-495.1 -227.61,-118 -462.11,-76.1 -704.1,-29.3 -1279.493,247.7 -2436.954,979.6 -3745.68,1095.7 0,131.5 0,263.1 0,394.6 1380.515,-129.4 2567.625,-1001 3910.45,-1288.3 243.75,-52.2 479.34,-98.3 703.6,37.7 204.71,124.2 332.47,346.2 428.9,557.8 218.57,479.4 305.32,1010.8 544.61,1481.5 91.51,180.1 214.35,364 392.96,468 202.61,118 414.68,94.8 633.33,38.2 367.83,-95 676.3,-313 1017.77,-468.9 349.07,-159.4 702.9,-189 1063.41,-44.1 524.77,210.8 921.29,785.7 1539.12,519.9 639.77,-275.2 1068.76,-1000.4 1455.93,-1543.2 207.39,-290.7 411.58,-586.4 647.18,-855.4 178.1,-203.2 394.4,-442.9 667,-513.3 397.7,-102.8 884.9,328.6 1180.5,552.4 332.6,251.8 643,533.1 985.5,771.8 302.5,210.9 636.5,384.8 1007.2,429 197.7,23.5 379.1,33.1 564,116.6 215.8,97.6 404.9,247.8 580.9,404.2 313.5,278.6 588.5,615.1 942.9,844.4 146.8,95 313.7,171.3 491.5,174.4 257,4.5 481,-157.6 715.7,-240.9 516.7,-183.3 1023.6,-159 1518.1,73.3 392.2,184.3 801.2,511.4 1248.6,539.3 181.1,11.4 378.4,-73.9 544,-139.8 248.2,-99 486.5,-222.9 721.2,-350.1 648.1,-351.4 1266.5,-758.5 1885.3,-1158.1 614.8,-397.1 1227.3,-799.2 1860.2,-1167.2 482.4,-280.4 992,-576.4 1547.7,-676.4 35,-108.1 75.9,-214.2 121.8,-318.1"
         style="fill:#100f0d;fill-opacity:1;fill-rule:nonzero;stroke:none"
         id="path52" />
      <path
         d="m 26488,11976.3 c -555.6,94 -1064,406.6 -1539.1,694 -637.3,385.4 -1252.6,806.4 -1870.6,1221.7 -619.6,416.4 -1238.9,841.4 -1890.7,1206.6 -232.1,130 -468.2,257.1 -715.3,356.6 -161.1,65 -353.1,144.7 -530.4,130.3 -477.4,-38.8 -886.7,-391.6 -1297,-602.9 -496.1,-255.5 -1008.7,-304.8 -1539.4,-117.5 -243.1,85.8 -480,271.5 -744.5,278.9 -176.5,4.9 -338.5,-66.4 -483.3,-162.1 -363.7,-240.2 -633.3,-602.3 -950.8,-896 -162.6,-150.4 -336.7,-293 -537.3,-389.7 -187.5,-90.3 -362.5,-100.9 -564.4,-124.7 -394,-46.5 -730.2,-269.6 -1027,-519.3 -312.5,-262.8 -594,-560.6 -913.4,-815.5 -291.3,-232.3 -759.8,-605.2 -1152.1,-455.9 -272.5,103.7 -480.6,356.6 -657.3,578.1 -229.05,287.5 -430.53,596.3 -636.69,900.2 -370.45,546.1 -803.33,1300.3 -1452.8,1551.5 -640.62,247.8 -1027,-379.1 -1560.67,-598.7 -362.8,-149.2 -709.49,-104.6 -1049.37,76.3 -333.24,177.5 -633.86,416.1 -1005.23,513 -470.55,122.9 -783.75,-95.3 -980.32,-520.7 -232.93,-504 -299.71,-1067.1 -501.78,-1582.7 -86.95,-221.8 -205.74,-463.2 -411.14,-598.7 -217.63,-143.5 -460.14,-99.2 -701.13,-46.2 -1383.477,304.5 -2587.793,1279.4 -4014.43,1405.5 0,131.6 0,263.1 0,394.7 718.44,-47.8 1397.199,-388.1 2041.555,-683.9 661.875,-303.9 1332.745,-658.3 2048.905,-816 234.43,-51.6 487.94,-95.7 700.22,44.3 209.46,138.2 320.7,395.5 399.8,623.3 190.08,547.5 235.13,1139.9 458.58,1676.5 181.57,435.9 495.69,663.5 971.6,533.1 373.78,-102.4 662.24,-366 986.19,-563.3 332.48,-202.6 675.21,-257.9 1039.06,-94.3 538.69,242.2 922.52,928 1590.27,702 658.51,-222.9 1091.35,-1000.8 1444.57,-1548 203.88,-315.9 400.71,-637.3 622.01,-941.4 174.4,-239.6 374,-511.7 643.8,-649.8 382.2,-195.7 829.3,83.1 1123.8,326.5 320.8,265.1 581.2,593.4 875.4,886 281.7,280.3 610.3,548.5 1018.9,595.4 204.8,23.5 379.7,31.1 569.4,125.2 199.9,99.2 371.6,246.4 530.1,401.5 307.8,301.2 564.7,674.5 922.8,920.2 141.1,96.8 299.9,167.1 474.1,157.2 274.6,-15.5 519.2,-225.7 769.5,-321.8 566.4,-217.4 1115.7,-156.6 1642,131.4 431.8,236.3 860.4,612.8 1373.5,642.7 418,24.2 864.1,-276.1 1208.9,-475.9 646.8,-374.8 1257.7,-813.5 1869.2,-1242.3 611.3,-428.7 1219.6,-863.5 1852,-1260.9 453.6,-284.9 952.6,-612.5 1494.6,-684.6 12.8,-121.6 30.9,-240.2 55.4,-359.9"
         style="fill:#100f0d;fill-opacity:1;fill-rule:nonzero;stroke:none"
         id="path54" />
      <path
         d="m 26422.4,12637.1 c -520.7,55.5 -1005,391.3 -1433.1,668.5 -618.1,400.3 -1211.3,838.2 -1807.7,1269.8 -595.5,430.8 -1190.3,872.4 -1822.2,1249.1 -338,201.5 -749.2,477 -1160.1,461.8 -547.8,-20.3 -1001.6,-401.1 -1464.9,-648 -561.8,-299.4 -1145.3,-364.4 -1744.9,-126 -257.5,102.4 -510.2,327.4 -793.7,347.6 -173.6,12.4 -331.7,-56.6 -472,-153.7 -356.6,-246.9 -608.6,-624.7 -913.1,-928.2 -157.6,-157.1 -328.8,-306.1 -529.1,-406.2 -191.9,-95.9 -367.8,-102.2 -575.2,-124.9 -420.1,-45.7 -747.8,-338.6 -1024.7,-634.8 -436.4,-466.9 -1198.4,-1620.1 -1977.1,-1159.4 -267.2,158.1 -462.6,436.9 -637.1,686.7 -216.98,310.6 -411.44,636.4 -614.35,956.2 -344.71,543.3 -779.06,1325.7 -1441.13,1526.4 -682.53,206.8 -1067.95,-505.8 -1609.09,-763.6 -364.27,-173.5 -708.9,-110.7 -1038.07,101.4 -320.27,206.4 -604.34,482.4 -980.64,586.1 -476.27,131.2 -794.81,-90 -972.64,-529.7 -221.35,-547.3 -257.66,-1150.5 -444.29,-1708.7 -76.46,-228.8 -185.61,-491.6 -397.96,-627.3 -208.6,-133.4 -469.48,-91.6 -698.4,-42.7 -722.77,154.4 -1398.992,522.6 -2063.203,833.3 -640.864,299.8 -1325.917,656.8 -2045.887,689.3 0,131.6 0,263.2 0,394.7 716.59,-46.4 1394.89,-384.5 2038.492,-677.5 661.82,-301.3 1332.688,-652.9 2047.988,-809.1 234.9,-51.3 483.93,-92.7 695.95,47.5 208.07,137.6 322.17,390.1 404.44,616 195.82,537.7 250.8,1121.4 478.94,1647.9 185.51,428.2 497.21,657.4 969.55,534.7 374.63,-97.3 668.52,-355.5 994.92,-548.3 334.52,-197.6 680.1,-258.7 1045.89,-99.6 542.9,236.3 916.04,884.9 1584.32,671.2 647.2,-207 1081.94,-939.8 1436.22,-1470.4 203.94,-305.4 400.18,-616.6 617.65,-912.7 178.9,-243.6 377.7,-509.2 642.2,-665.2 763.9,-450.5 1541.8,666.4 1990.5,1122.8 283.3,288.2 613.4,570.1 1028.4,624.9 204.3,27 381,37.6 570.6,130.7 198.6,97.5 370.6,240.4 530.7,391.5 308.9,291.6 569.3,652.6 926,889.8 142.7,95 302.3,163.7 476.6,157.4 284.9,-10.4 551.4,-214.2 817.4,-299.9 655.8,-211.3 1291.6,-112.3 1903.6,179.1 521.5,248.2 1058.7,643.9 1656.7,664.9 379.7,13.3 781.8,-299.9 1084.1,-494.7 591.3,-380.9 1150.6,-813 1711.3,-1236.9 561.3,-424.4 1119.8,-853.7 1699.2,-1253.3 400.8,-276.4 843.3,-606.2 1330.5,-704 -10.9,-141.4 -19.4,-282.7 -21.6,-424.5"
         style="fill:#100f0d;fill-opacity:1;fill-rule:nonzero;stroke:none"
         id="path56" />
      <path
         d="m 26481.7,13420.8 c -462.4,116.8 -878.7,432.7 -1262.5,702.3 -552.8,388.3 -1087.4,802.3 -1624.4,1212.1 -538.1,410.7 -1074.6,828 -1638.8,1202.7 -283.9,188.6 -679.1,514.5 -1038.5,510.7 -619.6,-6.5 -1214.4,-412.3 -1761.6,-655.6 -660.1,-293.4 -1343.8,-409.6 -2048.5,-200.2 -264.3,78.4 -525.1,259.2 -806.9,257.1 -173.4,-1.3 -336.3,-72.8 -479.7,-165.2 -342.5,-220.9 -604.8,-550 -905.2,-821 -171.7,-154.9 -356.6,-302.8 -568,-400.1 -186.7,-86 -370.2,-94.5 -569.1,-124.6 -393.9,-59.7 -716.9,-311.8 -998.3,-578.1 -466.9,-441.9 -1274.7,-1547.2 -2033.8,-1104.4 -549.6,320.6 -905.06,997.2 -1258.8,1501.6 -361.67,515.6 -792.05,1200.7 -1422.53,1412.5 -649.55,218.1 -1028.93,-374.2 -1562.89,-602.6 -363.69,-155.5 -715.68,-100.8 -1056.6,81.8 -332.94,178.3 -631.35,421.7 -1003.04,518.7 -483.72,126.2 -804.44,-100 -1006.11,-535.4 -232.92,-503 -305.64,-1063.3 -516.65,-1574.6 -90.17,-218.4 -211.72,-456.3 -419.37,-585.8 -217.82,-135.8 -460.44,-92.2 -698.19,-40 -704.51,154.6 -1367.361,488.7 -2023.536,777.7 -640.125,282 -1309.684,600.7 -2016.844,651.5 0,131.5 0,263.1 0,394.7 694.7,-50.6 1353.769,-342.8 1989.355,-607.6 646.91,-269.6 1299.265,-578.6 1988.925,-722.6 239.84,-50.1 476.9,-89.8 698.79,38.8 206.74,119.9 339.95,337.7 441.89,546.3 230.28,471.4 331.61,997.5 582.12,1459.8 225.54,416.1 554.9,615.7 1027.81,503.2 373.43,-88.8 685.45,-312.9 1027.05,-476 348.06,-166.1 706.43,-219.7 1073.23,-76.5 531.51,207.6 906.98,743.9 1537.61,540 609.83,-197.2 1041.69,-822.4 1410.33,-1308.9 358.82,-473.7 722.35,-1096.4 1259.85,-1390.3 750.9,-410.4 1568.4,600.1 2065.2,1025.2 292.9,250.6 622.5,481.9 1012.6,539.5 198,29.2 383.1,38.7 570.6,118.5 211.4,90 400.2,226.4 577.3,370.9 308.6,251.7 584.5,557.5 930.8,759.6 149.5,87.2 316.1,152.9 491.2,155.6 282.1,4.4 547,-157.4 815.7,-225.8 726.1,-184.8 1433,-58.3 2116.3,218.4 578,234.2 1215,630.4 1856.8,635.1 340.1,2.4 723.4,-316.5 992.5,-495.2 537.1,-356.7 1052,-746.8 1567.9,-1133.1 514.5,-385.2 1026.8,-773.9 1554.7,-1140.6 369.6,-256.7 763.9,-551.2 1202.2,-677.3 -25.9,-163.9 -50.7,-328.1 -70.9,-492.8"
         style="fill:#100f0d;fill-opacity:1;fill-rule:nonzero;stroke:none"
         id="path58" />
      <path
         d="m 26622.2,14316.9 c -422.8,122.4 -802.2,394.3 -1164.1,636.5 -544.2,364.2 -1072.6,751.4 -1604.1,1133.6 -470.1,338.1 -940.2,677.6 -1427,991.5 -260.4,167.9 -638.3,471.3 -966.1,478.1 -318.5,6.7 -677.1,-128.1 -971.5,-235.5 -330.7,-120.5 -652,-265.3 -982.2,-387.4 -671.2,-248.2 -1358.1,-365.1 -2066.8,-213.6 -274.7,58.7 -548.4,210.2 -832.5,213.1 -176.3,1.9 -346.6,-55.7 -502,-134.9 -363.5,-185.4 -659.9,-483.6 -986.1,-723.9 -353.6,-260.5 -684.1,-389.6 -1116.8,-441.2 -403,-48.1 -749.1,-264.8 -1063,-509.2 -528.6,-411.7 -1338.9,-1319.3 -2088.3,-946.2 -525.1,261.5 -894.67,840.8 -1253.9,1282.7 -380.73,468.3 -830.62,1070.9 -1445.19,1233 -591.89,156 -956.04,-322.1 -1463.31,-507.4 -383.03,-140 -756.51,-85.8 -1122.25,75.6 -347.45,153.3 -671.98,359.2 -1048.59,436.9 -463.32,95.5 -798.07,-92.3 -1041.5,-487.4 -262.42,-426 -388.48,-919.9 -639.62,-1351.7 -114.32,-196.6 -258.33,-394.2 -466.37,-499.4 -225.22,-113.8 -463.61,-76.4 -702.19,-28.9 -1337.71,266.5 -2531.776,1138.9 -3906.94,1232.4 0,131.6 0,263.1 0,394.7 1330.39,-75.4 2508.848,-855.5 3807.61,-1089.9 235.92,-42.6 478.22,-76.7 705.68,18.4 223,93.3 392.58,278.6 528.77,472.8 267.71,381.7 432.65,828.7 722.65,1195.5 283.45,358.6 636.22,490.9 1084.66,403.9 377.49,-73.2 715.06,-258.5 1071.53,-393.3 360.26,-136.2 727.49,-186 1101.56,-70.9 521.28,160.4 889.66,608.9 1479.22,468.8 565.05,-134.3 1002.75,-638.2 1377,-1049.2 376.38,-413.3 763.48,-953.9 1290.08,-1185.7 744.2,-327.7 1559,458.4 2124.4,837.7 327.2,219.6 681.5,411.6 1079.8,452.3 428,43.7 767.1,152.1 1133.9,383.4 338.9,213.8 651,479.3 1018.2,645.1 162.5,73.5 335.3,124 514.7,125.4 278.2,2 539.7,-127.9 809.1,-183.1 722.8,-147.9 1432.6,-30.1 2122.5,203.9 312.9,106 620,228.7 933.1,334 313,105.4 702,251.5 1038.1,233.8 317.3,-16.6 682.8,-281.9 943.9,-436.7 472.7,-280.2 930.4,-585.7 1388.3,-889.1 516,-342 1029.4,-688.6 1556.7,-1013.1 355,-218.5 725.6,-460.5 1132.5,-567.4 -35.8,-179.1 -70.4,-358.4 -103.6,-538"
         style="fill:#100f0d;fill-opacity:1;fill-rule:nonzero;stroke:none"
         id="path60" />
      <path
         d="m 26814.4,15284.4 c -397.7,89 -765.1,305.5 -1117.5,502.8 -517.4,289.7 -1022.1,601.5 -1529,908.8 -451.4,273.6 -902.6,549 -1367.1,799.9 -268.7,145.2 -618.5,376.2 -934.6,395.8 -332.3,20.6 -718.6,-114.7 -1032.5,-211.1 -311.5,-95.7 -617.8,-207.6 -928.7,-305.4 -679.2,-213.8 -1377,-329.2 -2085.6,-201.1 -272.2,49.2 -538.2,169.8 -816.9,175 -181.7,3.3 -358.7,-37.7 -527.8,-101.9 -372.4,-141.5 -698.5,-380.3 -1044.1,-573.9 -387.7,-217.2 -746.6,-313.7 -1185.3,-354 -395,-36.2 -755.5,-205.7 -1093.3,-404.3 -611.1,-359.5 -1440.7,-1054.5 -2195.9,-728 -1004.83,434.4 -1482.15,1734.9 -2595.33,1984.9 -567.53,127.4 -948.48,-283.8 -1457.02,-432.6 -376.51,-110.2 -752.13,-68 -1119.94,53.1 -377.08,124.2 -736.82,301.5 -1131.8,365.7 -440.24,71.6 -802.42,-43.6 -1108.7,-370.4 -304.35,-324.6 -500.84,-732.4 -791.06,-1068.4 -335.25,-388.1 -709.98,-504.5 -1212.01,-431.4 -1289.771,188 -2465.353,918.9 -3778.4,977.4 0,131.6 0,263.2 0,394.7 1263.476,-33.7 2420.703,-663.6 3666.09,-814.2 485.09,-58.7 881.24,19.9 1256.28,345.3 328.53,285.1 573.64,655.4 915.19,926.6 706.46,561.1 1517.52,187.2 2279.22,-27.3 388.95,-109.5 785.46,-151.4 1180.71,-46.7 497.36,131.8 884.14,496.9 1428.69,392.2 1064.84,-204.9 1599.48,-1373.8 2601.58,-1691.5 747.6,-237.1 1553.3,315.5 2195,624.3 365.7,176 747.2,317.6 1156.1,339.4 418.3,22.2 782.4,110.6 1164.5,285.7 358.5,164.3 702.3,369 1080,488.1 175.2,55.2 358.3,90.4 542.6,87.5 292.4,-4.5 569.8,-119.3 856.8,-164.7 663.9,-104.8 1322.2,-8.9 1964.7,167.6 622.7,171 1268.5,442 1921.8,456.6 337,7.5 696.5,-188.7 995.7,-326.1 457.6,-210.2 903.9,-444.7 1350.2,-677.6 472.8,-246.8 944.2,-496.4 1424.1,-729.1 377.7,-183.2 774.6,-384.6 1192.9,-451.6 -40.2,-186.6 -80.2,-373.3 -119.6,-560.1"
         style="fill:#100f0d;fill-opacity:1;fill-rule:nonzero;stroke:none"
         id="path62" />
      <path
         d="m 27028.5,16282.3 c -413.8,43.9 -811.8,214.7 -1193.3,372 -475.8,196.1 -943.6,411.1 -1412.6,622.4 -444.3,200.3 -888.9,402 -1343,579.5 -310.1,121.3 -662,279.1 -1001.3,272.5 -637.2,-12.3 -1266.8,-244 -1879.5,-395.6 -645.9,-159.8 -1305.9,-247.5 -1968.2,-141.3 -264.1,42.3 -520.4,135 -788.9,146 -187.3,7.6 -374.7,-19.3 -556,-64.7 -396.9,-99.3 -765.3,-285 -1146,-430.5 -390.7,-149.3 -763.3,-221.2 -1180.1,-234.8 -407.5,-13.3 -796.1,-134.3 -1171.8,-285.3 -685.6,-275.4 -1504.3,-742 -2267.5,-517 -942.4,277.9 -1531.07,1278.9 -2529.55,1437.1 -540.55,85.6 -945.11,-261.7 -1448.98,-373.1 -386.51,-85.5 -774.38,-49.1 -1155.96,41.9 -791.71,189 -1614.29,521.6 -2369.77,38.5 -356.76,-228.2 -639.71,-551.7 -988.87,-790.1 -399.36,-272.6 -815.68,-326.8 -1289.8,-278.4 -1209.71,123.5 -2351.46,671.2 -3575.53,685.7 0,131.5 0,263.1 0,394.7 1176.63,7.7 2297.7303,-436.8 3464.64,-524.6 483.7,-36.4 929.32,-0.5 1367.43,219.3 359.29,180.3 679.87,429.4 1044.71,599.5 795.5,370.6 1627.36,110.4 2440.03,-47.8 403.34,-78.5 812.2,-112.3 1218.32,-32.9 472.95,92.5 875.28,381.3 1372.6,339.2 976.84,-82.8 1642.13,-969.3 2583.13,-1146.4 766.3,-144.2 1549.2,190.3 2266.3,409.8 388.6,118.9 784.7,210.8 1192.8,216.8 430.4,6.4 826.1,61.4 1239.6,184.7 379.8,113.3 752.5,255.3 1142.7,330.3 188.1,36.2 379.2,56 570.8,48.7 279.5,-10.8 546.2,-97.7 822.1,-135.8 631.8,-87.2 1259.6,-15.1 1880,114.8 597.5,125.1 1203.2,307 1817.7,317.7 319.3,5.6 637.2,-90 940.9,-178.9 477.1,-139.5 945.5,-308.8 1413.6,-475.6 467,-166.5 933.3,-336.5 1405.6,-487.5 389,-124.3 791.7,-255.2 1202.7,-271.5 -39.2,-186.6 -79,-372.9 -119,-559.3"
         style="fill:#100f0d;fill-opacity:1;fill-rule:nonzero;stroke:none"
         id="path64" />
    </g>
  </g>
</svg>
